<?xml version="1.0" standalone="no"?>
<!DOCTYPE svg PUBLIC "-//W3C//DTD SVG 20010904//EN"
 "http://www.w3.org/TR/2001/REC-SVG-20010904/DTD/svg10.dtd">






 <svg version="1.0" xmlns="http://www.w3.org/2000/svg"
 width="200.000000pt" height="200.000000pt" viewBox="0 0 200.000000 200.000000"
 preserveAspectRatio="xMidYMid meet">

<g transform="translate(0.000000,200.000000) scale(0.100000,-0.100000)"
fill="#000000" stroke="none">
<path d="M174 1533 c-12 -2 -32 -15 -45 -29 l-24 -26 0 -479 0 -479 28 -27 27
-28 840 0 840 0 27 28 28 27 0 480 0 480 -28 27 -27 28 -823 1 c-452 1 -832 0
-843 -3z m1664 -49 l22 -15 0 -466 c0 -420 -2 -468 -17 -485 -15 -17 -48 -18
-625 -18 l-608 0 0 500 0 500 603 0 c529 0 605 -2 625 -16z"/>
<path d="M1548 1402 c-57 -35 -59 -50 -56 -417 l3 -335 33 -32 c31 -32 35 -33
117 -33 82 0 86 1 117 33 l33 32 0 351 0 351 -37 34 c-36 32 -41 34 -110 34
-51 0 -81 -6 -100 -18z m166 -23 c54 -25 57 -50 54 -395 l-3 -316 -33 -29
c-27 -25 -41 -29 -87 -29 -46 0 -60 4 -87 29 l-33 29 -3 309 c-4 337 1 373 46
397 32 18 111 20 146 5z"/>
</g>
</svg>
